#!OML:ASF F:\VICON\USERDATA\INSTALL\rory3\rory3.ASF
:FULLY-SPECIFIED
:DEGREES
36
root 0.32470156698956176 17.739676367501303 10.073662694832832 -1.4810356006195668 1.7172548780747232 1.7294989571226398
lfemur 17.541982924836503 -5.015080884968185 -25.713311888866663
ltibia 22.775299933361364
lfoot -6.881514086411186 -6.289631912477726
ltoes -17.432688738116667
rfemur -27.90277993552081 5.492669573265875 19.2891326646375
rtibia 23.033106159768685
rfoot -4.034358463055655 -5.320369509561779
rtoes -1.182824979237013
lowerback 9.305025383158357 -1.611601637391142 -3.5964965409375447
upperback 0.17990547491645364 -2.4310704084123094 1.9237097339803895
thorax -4.753992056963153 -1.1082077860869177 4.178092866113388
lowerneck -17.03741291117576 -2.6816563166088474 -2.2200334896599845
upperneck 21.416976710218368 -3.27578029954676 0.24386557849671564
head 9.628319488614947 -1.6544738087047672 0.05737962360063106
lclavicle -1.6713404521955093e-15 1.1659268035922741e-15
lhumerus -22.44675499690501 -3.8434914445540382 82.38239130055364
lradius 32.180589801497085
lwrist 8.071521784331896
lhand -29.34964188011155 23.750651582355683
lfingers 7.12502
lthumb -2.689257234485602 53.709078068044285
rclavicle -1.6713404521955093e-15 1.1659268035922741e-15
rhumerus -33.46054285107961 -27.946922668956326 -73.41011690982974
rradius 19.554292281506772
rwrist 13.554716022387819
rhand -17.86313750705675 21.217026832365185
rfingers 7.12502
rthumb 8.402284846267147 -8.592615424428717
37
root 0.22142608231159425 17.820547159915538 9.864951209053354 -2.044176311612493 1.6560419805969957 0.03630738079086493
lfemur 14.356561044098388 -4.68858074585062 -23.169444210731875
ltibia 32.800666069802
lfoot 0.897056653967498 -11.49743493530011
ltoes -18.72840714863929
rfemur -26.40769761403011 5.111916263650724 21.922605804509637
rtibia 26.685971525602422
rfoot -3.1610297614067795 -3.052095984536301
rtoes 3.202099712273332
lowerback 9.339637714839023 -1.7115269393511179 -2.1994703867013996
upperback 0.13620287143393883 -2.3796534705032903 2.442258335402079
thorax -4.848365381918656 -1.106676243651141 3.85154129054874
lowerneck -16.94021217106706 -2.634610845787069 -2.1882694159442755
upperneck 21.605479942273444 -3.185285921726093 0.030585375245038793
head 9.667878753419405 -1.6298020300103808 0.0012848733750831232
lclavicle -1.986485780155007e-15 8.757400821437752e-16
lhumerus -24.266508647880215 -2.884515464197034 82.78794932360809
lradius 31.56167887743459
lwrist 7.754768558627867
lhand -28.68343495589836 24.137555856551252
lfingers 7.12502
lthumb -2.0458456822044293 54.099138081863934
rclavicle -1.986485780155007e-15 8.757400821437752e-16
rhumerus -34.05210648245955 -29.354734676870244 -72.45960733718778
rradius 18.804081213046146
rwrist 14.78205186061496
rhand -17.648630807919364 21.136331436983557
rfingers 7.12502
rthumb 8.609282303404447 -8.663966573256701
38
root 0.11443468193764655 17.934229738307636 10.724344628968032 -2.606355501092931 1.6711442564868086 -1.6834656305981555
lfemur 9.317324648119566 -3.7968423261954722 -19.984973293593942
ltibia 44.02200520789027
lfoot 9.877219778833329 -15.989484445647134
ltoes -14.575524362887073
rfemur -23.504886920310938 5.105317006117069 24.708859538625802
rtibia 29.015976626633883
rfoot -3.955081543716921 -2.631239956210828
rtoes 7.0492572999164915
lowerback 9.46043918667508 -1.6717302441010307 -0.6499155928173872
upperback 0.13222426334299947 -2.1317081548910752 2.8949967910445933
thorax -4.945259335319961 -1.0118661795656028 3.428790081745164
lowerneck -16.818642586912926 -2.6325515564749735 -2.131297878448496
upperneck 21.689339230517945 -3.1833345597766316 -0.026871270477825004
head 9.670842999170013 -1.6318815489391783 -0.020075277941684455
lclavicle -2.0030801805379497e-15 8.605764490687311e-16
lhumerus -26.148996067380054 -2.3974206920752223 83.3672929512028
lradius 30.783605394429358
lwrist 7.34003110730042
lhand -27.699411456662222 24.580228651191085
lfingers 7.12502
lthumb -1.0955223452445009 54.546119786125054
rclavicle -2.0030801805379497e-15 8.605764490687311e-16
rhumerus -34.054524222491594 -29.32299597766375 -72.40041680370001
rradius 18.739432405978068
rwrist 14.714989908730661
rhand -17.30757697289733 21.47965617029998
rfingers 7.12502
rthumb 8.938404243485877 -8.307951931991319
39
root 0.016617607134040424 18.044875944288187 11.605943085212354 -3.1169546072106256 1.7322229251363739 -3.0991989854611663
lfemur 3.5216136387634798 -2.5253885639302487 -17.195734384388782
ltibia 54.71666243742783
lfoot 15.271480338376616 -17.913937227348068
ltoes -8.416882846192472
rfemur -20.22436003590578 5.4419574851821 27.011949901058806
rtibia 29.342559167561
rfoot -5.758297027162474 -3.5036903730531685
rtoes 9.24852862903564
lowerback 9.631484532828452 -1.5368123569527987 0.5904792131077036
upperback 0.18405554536999416 -1.7994899337117962 3.1584486881419083
thorax -5.025608166771228 -0.8713399119823844 2.9731381308210145
lowerneck -16.643760679163634 -2.6995587534578895 -2.0994335410821185
upperneck 21.671163361182185 -3.3076154069239707 0.12012322455735702
head 9.637248063815017 -1.6751935698189682 0.0051751037462804406
lclavicle -2.0464553921516e-15 8.2086115485533e-16
lhumerus -27.54985994324757 -2.6053075646854973 83.93743045769135
lradius 29.895841796903298
lwrist 6.419972380291293
lhand -26.659274850137095 25.088656178999
lfingers 7.12502
lthumb -0.09104004345202299 55.05667642554643
rclavicle -2.0464553921516e-15 8.2086115485533e-16
rhumerus -33.5514030309065 -28.13766322568545 -73.29248883923168
rradius 19.06336834417977
rwrist 13.626291039045697
rhand -16.968907169216823 22.145165243527362
rfingers 7.12502
rthumb 9.26523711835628 -7.6296099567749165
40
root -0.06732535858979122 18.14794607425063 11.721310614578352 -3.538196460417294 1.6018160394209993 -4.274384539730116
lfemur -2.7905588497092557 -1.0650575325399634 -15.089648650562665
ltibia 63.94796739783861
lfoot 15.363263114045179 -17.07139170678742
ltoes -4.932624103508877
rfemur -17.018434725961317 5.866885411808797 28.863407342525576
rtibia 28.377417068403005
rfoot -7.979481872541639 -4.8435726490875
rtoes 9.621605292545443
lowerback 9.780135705873922 -1.2876298228277974 1.567928702323404
upperback 0.30945599894565123 -1.3508157645588947 3.2535775916858007
thorax -5.044920560673661 -0.6708534613373665 2.430040062872374
lowerneck -16.470916797129018 -2.8028265827938506 -2.067465270636229
upperneck 21.596874505313554 -3.495233860781321 0.35864026163495355
head 9.590869525932034 -1.7408943320988308 0.04438907588094637
lclavicle -2.31158623032208e-15 5.766658152661342e-16
lhumerus -28.598237870943553 -3.095646421861991 84.43542343397351
lradius 28.959827667595988
lwrist 5.195096113774856
lhand -26.15797273146551 25.080021834466574
lfingers 7.12502
lthumb 0.3930696583296279 55.05104287727124
rclavicle -2.31158623032208e-15 5.766658152661342e-16
rhumerus -32.66897841642978 -26.433842985370497 -74.75311115298824
rradius 19.46832452287338
rwrist 12.253995412793799
rhand -16.66199777942334 22.9057663740513
rfingers 7.12502
rthumb 9.561435950946784 -6.855622523493112
41
root -0.12219381119947287 18.22109695044417 11.67905577956478 -3.8270773383795955 1.0442562721050779 -5.002644663026016
lfemur -8.797701734456092 0.5648846823658284 -13.857189838347573
ltibia 70.40425471541758
lfoot 11.039358015157696 -14.145220942596447
ltoes -4.354864308846137
rfemur -13.704012183581863 6.201044419320109 30.270062830643944
rtibia 27.5639863189869
rfoot -10.136632886576239 -5.880052169364513
rtoes 9.001921685400584
lowerback 9.838024191011511 -0.8177223360629787 2.347173934417537
upperback 0.4362807839537286 -0.6451519554869343 3.1530769030827575
thorax -5.01164670816404 -0.3408227968194655 1.8022840608035482
lowerneck -16.31601386761123 -2.90990996022986 -2.0126779568365816
upperneck 21.545750634393105 -3.6947330816580863 0.6062528467883657
head 9.561760324743336 -1.8086978039180963 0.07834533766318028
lclavicle -2.4369612106568113e-15 4.612531783022221e-16
lhumerus -29.500702116057013 -3.1156319693732417 84.72933597630384
lradius 27.968828100445947
lwrist 4.286077721702933
lhand -26.282260257374784 24.807397914730334
lfingers 7.12502
lthumb 0.2730742189388954 54.78297055788596
rclavicle -2.4369612106568113e-15 4.612531783022221e-16
rhumerus -31.46170309626108 -24.417564790298247 -76.34540297489272
rradius 20.01068775863364
rwrist 10.981009139575388
rhand -16.523341674320612 22.91088572995393
rfingers 7.12502
rthumb 9.69527042821246 -6.841922118216087
42
root -0.14366407431776712 18.255637799726625 12.352754737978966 -3.9465488290868245 0.32494438925828995 -5.307647381257921
lfemur -13.603702846196892 2.0542380253850205 -13.168823305013644
ltibia 73.97385379259384
lfoot 5.3179947173989115 -10.331512645022364
ltoes -4.974780080942111
rfemur -10.275473906001217 6.432594509715475 31.52296160434014
rtibia 27.959612319059488
rfoot -11.807668209245524 -6.153001368142537
rtoes 8.531659653053897
lowerback 9.882801941830536 -0.20430456583396872 3.136934278431947
upperback 0.528880888423171 0.2426907833953954 2.964691005256734
thorax -4.963398824356711 0.07810000694746361 1.2085177209198465
lowerneck -16.168455657127414 -2.981727595902053 -1.9245472386811648
upperneck 21.57589215979971 -3.83348606229347 0.7964567289297301
head 9.561575429183822 -1.8543155568756395 0.10314237080087854
lclavicle -1.9291655064549078e-15 9.29015605459738e-16
lhumerus -30.273825676748956 -2.397648911743472 84.84814788469609
lradius 27.309043618621324
lwrist 4.259043857859849
lhand -26.524239022747935 24.521565071971526
lfingers 7.12502
lthumb 0.039435285373957685 54.50099235706122
rclavicle -1.9291655064549078e-15 9.29015605459738e-16
rhumerus -30.07681823789806 -21.96306312164772 -77.7347372665038
rradius 20.905703227959716
rwrist 9.788293808340597
rhand -16.57146257686498 22.095137494591665
rfingers 7.12502
rthumb 9.648856426204285 -7.657676133615725
